<?xml version="1.0" standalone="no"?>
<!DOCTYPE svg PUBLIC "-//W3C//DTD SVG 20010904//EN"
 "http://www.w3.org/TR/2001/REC-SVG-20010904/DTD/svg10.dtd">
<svg version="1.0" xmlns="http://www.w3.org/2000/svg"
 width="200.000000pt" height="200.000000pt" viewBox="0 0 200.000000 200.000000"
 preserveAspectRatio="xMidYMid meet">

<g transform="translate(0.000000,200.000000) scale(0.100000,-0.100000)"
fill="#000000" stroke="none">
<path d="M690 1675 c0 -12 -5 -15 -16 -11 -21 8 -47 -24 -32 -41 5 -6 23 -15
39 -18 16 -4 27 -11 23 -16 -3 -5 -2 -18 1 -29 5 -15 10 -18 23 -11 18 10 17
15 24 -94 2 -32 15 -75 38 -119 27 -54 35 -85 38 -138 3 -45 0 -73 -8 -83 -10
-13 -8 -15 12 -15 23 0 26 5 32 53 3 28 6 80 6 113 l0 62 113 21 c63 11 117
21 120 21 4 0 15 -17 26 -38 10 -20 46 -59 80 -86 50 -40 61 -54 61 -79 0 -17
-8 -36 -17 -43 -16 -12 -15 -13 15 -14 21 0 32 5 32 14 0 7 9 16 20 19 17 4
20 14 20 59 0 48 -4 59 -41 103 -51 62 -76 108 -60 113 20 7 12 21 -32 50 -39
27 -51 29 -170 36 -153 8 -178 18 -202 80 -20 51 -48 81 -87 90 -14 3 -33 9
-42 12 -11 4 -16 1 -16 -11z m83 -22 c3 -5 -5 -8 -18 -8 -13 0 -21 3 -18 8 2
4 10 7 18 7 8 0 16 -3 18 -7z m536 -442 l-2 -46 -6 50 c-4 28 -10 57 -14 65
-5 8 -1 6 7 -4 10 -13 15 -37 15 -65z"/>
<path d="M620 1659 c0 -5 5 -7 10 -4 6 3 10 8 10 11 0 2 -4 4 -10 4 -5 0 -10
-5 -10 -11z"/>
<path d="M390 1395 c0 -27 4 -35 18 -35 10 0 13 3 6 8 -6 4 -11 16 -11 27 0
11 5 23 11 27 7 5 4 8 -6 8 -14 0 -18 -8 -18 -35z"/>
<path d="M447 1423 c-4 -3 0 -18 9 -31 15 -23 15 -25 0 -19 -9 4 -16 2 -16 -3
0 -6 9 -10 20 -10 21 0 28 24 10 35 -5 3 -10 11 -10 16 0 6 5 7 10 4 6 -3 10
-1 10 4 0 12 -23 15 -33 4z"/>
<path d="M508 1395 c2 -19 8 -35 12 -35 4 0 10 16 12 35 3 27 0 35 -12 35 -12
0 -15 -8 -12 -35z"/>
<path d="M1434 1418 c-5 -8 -2 -9 10 -5 19 7 19 7 -1 -40 -3 -8 2 -13 13 -13
13 0 15 3 7 8 -8 5 -9 13 -3 22 6 8 10 21 10 28 0 15 -26 16 -36 0z"/>
<path d="M1480 1393 c0 -27 4 -34 18 -31 9 2 18 13 20 25 2 12 10 24 18 27 11
4 12 2 4 -14 -15 -27 -12 -40 8 -40 11 0 13 3 5 8 -8 5 -9 13 -3 22 18 28 10
37 -30 37 -39 0 -40 -1 -40 -34z m17 -10 c-3 -10 -5 -4 -5 12 0 17 2 24 5 18
2 -7 2 -21 0 -30z"/>
<path d="M1570 1419 c0 -5 4 -8 9 -5 5 3 9 -5 9 -19 0 -14 -4 -22 -9 -19 -5 3
-9 0 -9 -6 0 -6 7 -10 16 -8 8 2 15 6 15 11 -1 4 -1 18 -1 32 0 16 -6 25 -15
25 -8 0 -15 -5 -15 -11z"/>
<path d="M748 913 c-15 -4 -18 -17 -19 -91 0 -48 -2 -82 -4 -77 -2 6 -14 43
-25 83 -19 63 -25 72 -46 72 -23 0 -24 -3 -25 -62 -1 -102 -12 -110 -33 -24
-16 70 -20 76 -43 76 -16 0 -23 -5 -21 -12 3 -7 20 -68 38 -135 19 -68 38
-123 44 -123 33 1 41 21 45 107 l4 88 27 -85 c24 -77 29 -85 53 -88 27 -3 27
-3 27 61 0 35 3 98 6 140 4 44 3 76 -2 76 -5 -1 -17 -3 -26 -6z"/>
<path d="M847 902 c-25 -27 -22 -72 3 -72 13 0 20 7 20 18 0 24 19 42 36 35
22 -8 18 -70 -5 -78 -10 -3 -31 -17 -45 -30 -36 -33 -37 -97 -1 -121 13 -8 30
-12 36 -8 7 4 27 7 46 6 l33 -1 0 112 c0 135 -10 157 -69 157 -24 0 -44 -7
-54 -18z m65 -214 c-30 -30 -44 42 -14 75 17 19 17 18 20 -23 2 -24 -1 -47 -6
-52z"/>
<path d="M1046 898 c-23 -38 -31 -158 -12 -202 15 -35 18 -38 51 -34 32 4 35
2 35 -22 0 -14 -5 -31 -11 -37 -14 -14 -39 -6 -39 13 0 8 -9 14 -20 14 -14 0
-20 -7 -20 -24 0 -33 22 -48 66 -44 63 5 72 29 80 200 6 135 6 148 -11 154 -9
4 -20 2 -25 -6 -5 -8 -9 -9 -14 -1 -13 20 -64 13 -80 -11z m79 -29 c4 -5 4
-46 0 -90 -6 -68 -10 -79 -26 -79 -17 0 -19 8 -19 83 0 46 3 87 7 90 10 10 31
8 38 -4z"/>
<path d="M1273 895 c-25 -17 -43 -89 -43 -170 0 -47 3 -57 25 -71 14 -9 32
-13 45 -9 23 7 27 -13 10 -46 -14 -25 -36 -24 -50 1 -15 28 -40 26 -40 -4 0
-50 71 -72 114 -34 25 22 29 34 46 168 11 80 19 148 20 151 0 4 -9 9 -20 12
-11 3 -20 1 -20 -3 0 -5 -12 -2 -27 6 -34 17 -34 17 -60 -1z m60 -101 c-4 -94
-10 -116 -31 -112 -15 3 -17 15 -15 82 3 77 15 111 37 103 7 -3 10 -30 9 -73z"/>
<path d="M1457 743 c6 -154 0 -183 -42 -183 -33 0 -33 -28 0 -36 46 -12 69 16
138 173 62 141 64 148 45 156 -12 4 -23 5 -26 3 -2 -3 -20 -45 -38 -93 l-34
-88 2 100 3 100 -27 3 -26 3 5 -138z"/>
<path d="M395 858 c-56 -31 -48 -70 26 -139 43 -39 60 -62 56 -73 -9 -22 -24
-20 -39 4 -7 11 -21 20 -31 20 -16 0 -18 -5 -13 -27 14 -56 70 -70 111 -28 44
43 33 68 -73 158 -35 30 -37 50 -8 55 11 2 19 -4 23 -17 8 -30 43 -28 43 2 0
46 -51 70 -95 45z"/>
</g>
</svg>
